<svg version="1.1" id="Capa_1" xmlns="http://www.w3.org/2000/svg" xmlns:xlink="http://www.w3.org/1999/xlink" x="0px" y="0px" height="24" width="24" viewBox="0 0 367 367" style="enable-background:new 0 0 367 367;fill:#0076a8" xml:space="preserve"><g><path d="M183.616,112.173c-39.165,0-71.028,31.863-71.028,71.028c0,39.165,31.863,71.028,71.028,71.028c39.165,0,71.028-31.863,71.028-71.028C254.644,144.036,222.781,112.173,183.616,112.173z"/><path d="M358,162h-16.777C331.762,91.3,275.674,35.161,205,25.619V9c0-4.962-4.038-9-9-9h-25c-4.962,0-9,4.038-9,9v16.652
                                C91.435,35.285,35.459,91.378,26.008,162H9c-4.962,0-9,4.038-9,9v25c0,4.962,4.038,9,9,9h17.092
                                C35.778,275.34,91.634,331.144,162,340.75V358c0,4.962,4.038,9,9,9h25c4.962,0,9-4.038,9-9v-17.217
                                c70.474-9.515,126.442-65.365,136.139-135.783H358c4.962,0,9-4.038,9-9v-25C367,166.038,362.962,162,358,162z M205,310.443V297
                                c0-4.962-4.038-9-9-9h-25c-4.962,0-9,4.038-9,9v13.405C108.204,301.292,65.631,258.771,56.442,205H70c4.962,0,9-4.038,9-9v-25
                                c0-4.962-4.038-9-9-9H56.343C65.317,107.947,108.004,65.144,162,55.997V70c0,4.962,4.038,9,9,9h25c4.962,0,9-4.038,9-9V55.959
                                c54.105,9.064,96.901,51.911,105.888,106.041H297c-4.962,0-9,4.038-9,9v25c0,4.962,4.038,9,9,9h13.789
                                C301.586,258.848,258.905,301.413,205,310.443z"/></g></svg>